<svg width="278" height="46" viewBox="0 0 278 46" fill="none" xmlns="http://www.w3.org/2000/svg">
<g filter="url(#filter0_d_1_106)">
<rect x="4" width="270" height="38" fill="white"/>
<path fill-rule="evenodd" clip-rule="evenodd" d="M69.7582 27.7942L61.6388 5.99976H56.9901L55.4937 10.0328L61.9946 27.7937C62.3889 28.9038 62.2696 29.9763 59.7491 29.9763V31.4569H72.4349V29.9763C71.3713 29.9763 70.3451 29.4223 69.7582 27.7937V27.7942ZM86.0714 29.9073H86.9156V31.4569H74.0908V30.1222C74.5285 30.1125 74.9595 30.0146 75.3556 29.8346C75.6606 29.6593 75.9063 29.4026 76.0632 29.0954C76.22 28.7881 76.2813 28.4437 76.2394 28.1036V17.2143C76.2394 15.9874 76.0475 15.6276 74.434 15.6648C74.1393 15.6606 73.8447 15.6718 73.5513 15.6982V14.4374C75.3177 13.825 78.7758 12.8873 81.0003 12.8873C83.0737 12.8873 83.5724 13.5352 83.5724 15.1936V16.1678C85.3384 14.0049 87.2203 12.8873 89.3321 12.8873C91.291 12.8873 92.8254 14.0404 92.8254 16.0606C92.8533 16.4776 92.791 16.8957 92.6427 17.2882C92.4942 17.6808 92.263 18.0392 91.9633 18.3409C91.6637 18.6426 91.3023 18.8809 90.9022 19.0407C90.5021 19.2005 90.0719 19.2782 89.639 19.269C87.1818 19.269 87.4122 16.7457 85.2229 16.7457C84.6421 16.7727 84.0764 16.9333 83.573 17.2143V28.1036C83.5752 29.1506 84.4199 29.9078 86.0714 29.9078V29.9073ZM95.6236 13.4291H112.018L112.671 14.4374L102.612 29.4732H105.796C107.062 29.4485 108.287 29.0324 109.289 28.286C110.292 27.5397 111.019 26.5025 111.365 25.3271L112.671 25.472L111.827 31.4569H94.4714L93.8956 30.5197L103.956 15.4111H101.113C97.9284 15.4111 96.5826 17.3215 95.7786 19.3067L94.3591 19.1258L95.6236 13.4291ZM135.092 29.7991C135.321 29.8175 135.551 29.8175 135.78 29.7991L135.818 30.629C134.093 31.5181 132.17 31.9884 130.214 31.9992C126.645 31.9992 125.875 30.5202 125.875 28.4294V28.0325C124.61 30.0522 122.651 31.9631 119.579 31.9631C116.66 31.9631 114.971 30.2321 114.971 27.6716C114.971 24.2456 117.966 23.093 121.883 22.3358L125.875 21.579V20.929C125.875 18.8015 125.032 17.3958 122.15 17.3958C119.974 17.4786 117.812 17.781 115.7 18.2979V15.738C118.965 14.0797 122.651 12.8899 125.76 12.8899C131.21 12.8899 133.211 15.7024 133.211 20.4991V27.5644C133.211 29.3299 133.629 29.7985 135.092 29.7985V29.7991ZM125.875 27.167V23.0203L123.88 23.49C122.536 23.8147 121.537 24.3544 121.537 25.653C121.537 27.0592 122.727 27.5278 123.88 27.5278C124.561 27.5124 125.235 27.3903 125.875 27.1664V27.167ZM147.818 29.7991C148.199 29.9927 148.62 30.1034 149.05 30.1233V31.4579H137.413V30.1233C137.853 30.114 138.285 30.0161 138.683 29.8357C138.988 29.6602 139.233 29.4032 139.389 29.096C139.546 28.7887 139.606 28.4444 139.563 28.1046V17.2154C139.563 16.0245 139.371 15.6658 137.952 15.6658C137.644 15.6658 137.298 15.6658 136.88 15.6992V14.4374C138.645 13.825 142.099 12.8873 144.326 12.8873C146.399 12.8873 146.9 13.5352 146.9 15.1936V16.5287C148.935 14.4374 151.47 12.8873 154.385 12.8873C157.651 12.8873 159.378 14.1487 159.989 16.708C162.101 14.544 164.641 12.8873 167.671 12.8873C171.934 12.8873 173.583 15.0147 173.583 19.485V28.1036C173.553 28.4411 173.623 28.78 173.786 29.0803C173.948 29.3805 174.197 29.6295 174.501 29.798C174.883 29.991 175.304 30.1016 175.733 30.1222V31.4569H164.096V30.1222C164.536 30.113 164.969 30.015 165.367 29.8346C165.671 29.6591 165.917 29.4022 166.073 29.0949C166.229 28.7877 166.29 28.4433 166.247 28.1036V21.4702C166.247 18.6949 165.791 16.7839 162.832 16.7839C161.894 16.7639 160.963 16.9486 160.11 17.3241C160.234 18.0389 160.299 18.7623 160.302 19.4871V28.1057C160.27 28.4434 160.34 28.7827 160.503 29.0832C160.666 29.3836 160.915 29.6325 161.221 29.8001C161.6 29.9938 162.018 30.1045 162.447 30.1244V31.459H150.816V30.1244C151.253 30.1151 151.684 30.0171 152.081 29.8367C152.386 29.6617 152.632 29.405 152.789 29.0978C152.946 28.7906 153.007 28.4459 152.966 28.1057V21.4724C152.966 18.697 152.503 16.7861 149.545 16.7861C148.636 16.7713 147.735 16.943 146.9 17.2897V28.1078C146.87 28.4448 146.941 28.7829 147.103 29.0824C147.266 29.3819 147.514 29.6304 147.818 29.7985V29.7991ZM197.787 29.7991C198.016 29.8175 198.245 29.8175 198.474 29.7991L198.513 30.629C196.788 31.5181 194.865 31.9884 192.909 31.9992C189.339 31.9992 188.569 30.5202 188.569 28.4294V28.0325C187.305 30.0522 185.342 31.9631 182.272 31.9631C179.358 31.9631 177.664 30.2321 177.664 27.6716C177.664 24.2456 180.661 23.093 184.577 22.3358L188.569 21.579V20.929C188.569 18.8015 187.722 17.3958 184.846 17.3958C182.669 17.4788 180.507 17.7812 178.395 18.2979V15.738C181.657 14.0797 185.342 12.8899 188.454 12.8899C193.909 12.8899 195.906 15.7024 195.906 20.4991V27.5644C195.906 29.3299 196.329 29.7985 197.787 29.7985V29.7991ZM188.569 27.167V23.0203L186.573 23.49C185.231 23.8147 184.23 24.3544 184.23 25.653C184.23 27.0592 185.424 27.5278 186.573 27.5278C187.255 27.5125 187.929 27.3904 188.569 27.1664V27.167ZM200.273 30.7357L200.157 25.5442L201.73 25.3632C203.11 28.1757 205.068 30.0522 207.719 30.0522C209.561 30.0522 210.6 29.0439 210.6 27.8526C210.6 26.5901 209.33 26.0483 207.719 25.653L205.991 25.2205C203.379 24.5709 200.465 22.841 200.465 19.5227C200.465 15.5921 204.457 12.8894 209.907 12.8894C212.091 12.8487 214.251 13.3188 216.204 14.2596L216.589 18.8763L214.747 18.9825C213.059 15.8086 211.288 14.8348 209.407 14.8348C207.757 14.8348 206.91 15.8086 206.91 16.9628C206.91 18.369 208.027 19.0191 209.522 19.38L211.634 19.883C214.17 20.4981 217.243 21.7223 217.243 25.221C217.243 29.98 211.673 31.9997 207.031 31.9997C204.717 31.9865 202.425 31.5577 200.273 30.7352V30.7357ZM223.123 25.7437C221.275 25.7437 219.24 24.8771 219.24 22.4621C219.24 20.047 221.275 19.1449 223.123 19.1449C224.921 19.1449 227 20.047 227 22.4621C227 24.8771 224.921 25.7432 223.123 25.7432V25.7437ZM54.6181 26.1226C52.7747 26.1226 51 25.256 51 22.841C51 20.4259 52.7747 19.5232 54.6181 19.5232C56.4203 19.5232 58.2528 20.4254 58.2528 22.841C58.2528 25.2565 56.4176 26.1221 54.6154 26.1221L54.6181 26.1226Z" fill="#BDBDBD"/>
</g>
<defs>
<filter id="filter0_d_1_106" x="0" y="0" width="278" height="46" filterUnits="userSpaceOnUse" color-interpolation-filters="sRGB">
<feFlood flood-opacity="0" result="BackgroundImageFix"/>
<feColorMatrix in="SourceAlpha" type="matrix" values="0 0 0 0 0 0 0 0 0 0 0 0 0 0 0 0 0 0 127 0" result="hardAlpha"/>
<feOffset dy="4"/>
<feGaussianBlur stdDeviation="2"/>
<feComposite in2="hardAlpha" operator="out"/>
<feColorMatrix type="matrix" values="0 0 0 0 0 0 0 0 0 0 0 0 0 0 0 0 0 0 0.25 0"/>
<feBlend mode="normal" in2="BackgroundImageFix" result="effect1_dropShadow_1_106"/>
<feBlend mode="normal" in="SourceGraphic" in2="effect1_dropShadow_1_106" result="shape"/>
</filter>
</defs>
</svg>
